<mxfile host="app.diagrams.net" modified="2024-04-23T12:41:37.641Z" agent="Mozilla/5.0 (Windows NT 10.0; Win64; x64) AppleWebKit/537.36 (KHTML, like Gecko) Chrome/124.0.0.0 Safari/537.36 Edg/124.0.0.0" etag="bmLlHDqJs-DtlGMR9AX-" version="24.2.7" type="github">
  <diagram name="Page-1" id="Zqd1YzgJUZWeYHfp2GL1">
    <mxGraphModel dx="786" dy="472" grid="1" gridSize="10" guides="1" tooltips="1" connect="1" arrows="1" fold="1" page="1" pageScale="1" pageWidth="1920" pageHeight="1200" math="0" shadow="0">
      <root>
        <mxCell id="0" />
        <mxCell id="1" parent="0" />
        <mxCell id="Jkd2d1tERfmLZoAq9r95-1" value="group_id" style="ellipse;whiteSpace=wrap;html=1;align=center;fontStyle=4;" vertex="1" parent="1">
          <mxGeometry x="280" y="840" width="100" height="40" as="geometry" />
        </mxCell>
        <mxCell id="Jkd2d1tERfmLZoAq9r95-2" value="" style="endArrow=none;html=1;rounded=0;" edge="1" parent="1" source="Jkd2d1tERfmLZoAq9r95-1" target="Jkd2d1tERfmLZoAq9r95-3">
          <mxGeometry relative="1" as="geometry">
            <mxPoint x="1050" y="1750" as="sourcePoint" />
            <mxPoint x="1210" y="1750" as="targetPoint" />
          </mxGeometry>
        </mxCell>
        <mxCell id="Jkd2d1tERfmLZoAq9r95-3" value="Group" style="whiteSpace=wrap;html=1;align=center;" vertex="1" parent="1">
          <mxGeometry x="230" y="950" width="100" height="40" as="geometry" />
        </mxCell>
        <mxCell id="Jkd2d1tERfmLZoAq9r95-4" value="" style="endArrow=none;html=1;rounded=0;" edge="1" parent="1" source="Jkd2d1tERfmLZoAq9r95-7" target="Jkd2d1tERfmLZoAq9r95-3">
          <mxGeometry relative="1" as="geometry">
            <mxPoint x="1080" y="1780" as="sourcePoint" />
            <mxPoint x="1240" y="1780" as="targetPoint" />
          </mxGeometry>
        </mxCell>
        <mxCell id="Jkd2d1tERfmLZoAq9r95-5" value="" style="endArrow=none;html=1;rounded=0;" edge="1" parent="1" source="Jkd2d1tERfmLZoAq9r95-3" target="Jkd2d1tERfmLZoAq9r95-8">
          <mxGeometry relative="1" as="geometry">
            <mxPoint x="1090" y="1790" as="sourcePoint" />
            <mxPoint x="1250" y="1790" as="targetPoint" />
          </mxGeometry>
        </mxCell>
        <mxCell id="Jkd2d1tERfmLZoAq9r95-6" value="" style="endArrow=none;html=1;rounded=0;" edge="1" parent="1" source="Jkd2d1tERfmLZoAq9r95-10" target="Jkd2d1tERfmLZoAq9r95-3">
          <mxGeometry relative="1" as="geometry">
            <mxPoint x="179.9661005439425" y="1061.663785214747" as="sourcePoint" />
            <mxPoint x="1230" y="1770" as="targetPoint" />
          </mxGeometry>
        </mxCell>
        <mxCell id="Jkd2d1tERfmLZoAq9r95-7" value="group_name" style="ellipse;whiteSpace=wrap;html=1;align=center;" vertex="1" parent="1">
          <mxGeometry x="380" y="880" width="100" height="40" as="geometry" />
        </mxCell>
        <mxCell id="Jkd2d1tERfmLZoAq9r95-8" value="admin_id" style="ellipse;whiteSpace=wrap;html=1;align=center;" vertex="1" parent="1">
          <mxGeometry x="140" y="840" width="100" height="40" as="geometry" />
        </mxCell>
        <mxCell id="Jkd2d1tERfmLZoAq9r95-10" value="User_count" style="ellipse;whiteSpace=wrap;html=1;align=center;dashed=1;" vertex="1" parent="1">
          <mxGeometry x="40" y="880" width="100" height="40" as="geometry" />
        </mxCell>
      </root>
    </mxGraphModel>
  </diagram>
</mxfile>
